# xmcd CD database file
#
# Track frame offsets:
#	150
#	49407
#	72187
#	101936
#	142849
#	189508
#	228821
#	264340
#	297993
#
# Disc length: 4294 seconds
#
# Revision: 0
# Processed by: cddbd v1.5.2PL0 Copyright (c) Steve Scherf et al.
# Submitted via: CDex 1.51
#
DISCID=8110c409
DTITLE=Various Artist - The Best of 70 Years Blue Note
DYEAR=2009
DGENRE=Jazz
TTITLE0=Cannon ball Adderlay - Autumn Leaves
TTITLE1=Kenny Dorham - Afrodesia
TTITLE2=Freddie Hubbard - A Weaver of Dreams
TTITLE3=Hank Mobley - Soul Station
TTITLE4=Lee Morgan - The Sidewinder
TTITLE5=McCoy Tyner - Passion Dance
TTITLE6=Herbie Hancock - Maiden Voyage
TTITLE7=Wayne Shorter - Footprints
TTITLE8=Bill Evans and Jim Hall - My Funny Valentine
EXTD=YEAR: 2009
EXTT0=
EXTT1=
EXTT2=
EXTT3=
EXTT4=
EXTT5=
EXTT6=
EXTT7=
EXTT8=
PLAYORDER=
